<svg width="57" height="56" viewBox="0 0 57 56" fill="none" xmlns="http://www.w3.org/2000/svg">
<g clip-path="url(#clip0_524_14118)">
<path d="M49.9375 15.2344H33.3125V34.9219H49.9375V15.2344ZM54.8594 34.9219C53.9525 34.9219 53.2188 35.6557 53.2188 36.5625C53.2188 37.4677 52.4818 38.2031 51.5781 38.2031H23.1868C22.9311 37.4809 22.4722 36.8755 21.9332 36.3523L23.4688 33.2812L21.8281 31.6406H23.4688V18.5156H21.8281L23.4688 16.875L20.1875 10.3125C20.1875 11.2311 19.4657 11.9531 18.5469 11.9531C17.628 11.9531 16.9062 11.2311 16.9062 10.3125L13.625 16.875L15.2656 18.5156H13.625V31.6406H15.2656L13.625 33.2812L15.1605 36.3523C14.6216 36.8755 14.1628 37.481 13.907 38.2031H5.42188C4.51822 38.2031 3.78125 37.4677 3.78125 36.5625C3.78125 35.6557 3.04745 34.9219 2.14062 34.9219C1.2338 34.9219 0.5 35.6557 0.5 36.5625V46.4062C0.5 49.1203 2.70784 51.3281 5.42188 51.3281H15.2656C16.1725 51.3281 16.9062 50.5943 16.9062 49.6875C16.9062 48.7823 17.6432 48.0469 18.5469 48.0469C19.4505 48.0469 20.1875 48.7823 20.1875 49.6875C20.1875 50.5943 20.9213 51.3281 21.8281 51.3281H51.5781C54.2922 51.3281 56.5 49.1203 56.5 46.4062V36.5625C56.5 35.6557 55.7662 34.9219 54.8594 34.9219Z" fill="url(#paint0_linear_524_14118)"/>
<path fill-rule="evenodd" clip-rule="evenodd" d="M51.5781 6.67188H21.8281C20.9093 6.67188 20.1875 7.39364 20.1875 8.3125V14.875C20.1875 15.7936 19.4657 16.5156 18.5469 16.5156C17.628 16.5156 16.9062 15.7936 16.9062 14.875V8.3125C16.9062 7.39364 16.1845 6.67188 15.2656 6.67188H5.42188C2.69833 6.67188 0.5 8.87031 0.5 11.5938V18.1562C0.5 19.0749 1.22177 19.7969 2.14062 19.7969H3.78125C5.58594 19.7969 7.0625 21.2734 7.0625 23.0781C7.0625 24.8828 5.58594 26.3594 3.78125 26.3594H2.14062C1.22177 26.3594 0.5 27.0811 0.5 28V34.5625C0.5 37.2858 2.69833 39.4844 5.42188 39.4844H15.2656C16.1845 39.4844 16.9062 38.7624 16.9062 37.8438V31.2812C16.9062 30.3624 17.628 29.6406 18.5469 29.6406C19.4657 29.6406 20.1875 30.3624 20.1875 31.2812V37.8438C20.1875 38.7624 20.9093 39.4844 21.8281 39.4844H51.5781C54.3017 39.4844 56.5 37.2858 56.5 34.5625V11.5938C56.5 8.87031 54.3017 6.67188 51.5781 6.67188ZM20.1875 24.7188C20.1875 25.6374 19.4657 26.3594 18.5469 26.3594C17.628 26.3594 16.9062 25.6374 16.9062 24.7188V21.4375C16.9062 20.5186 17.628 19.7969 18.5469 19.7969C19.4657 19.7969 20.1875 20.5186 20.1875 21.4375V24.7188ZM46.1749 19.0749L39.6124 28.9186C39.1362 29.5856 38.2476 29.8957 37.3155 29.3781C36.5609 28.8532 36.3641 27.836 36.8563 27.0813L43.4188 17.2375C43.9436 16.4829 44.9608 16.286 45.7156 16.7781C46.4703 17.3031 46.6672 18.3202 46.1749 19.0749ZM40 18C40 19.1046 39.1046 20 38 20C36.8954 20 36 19.1046 36 18C36 16.8954 36.8954 16 38 16C39.1046 16 40 16.8954 40 18ZM45 30C46.1046 30 47 29.1046 47 28C47 26.8954 46.1046 26 45 26C43.8954 26 43 26.8954 43 28C43 29.1046 43.8954 30 45 30Z" fill="url(#paint1_linear_524_14118)"/>
</g>
<defs>
<linearGradient id="paint0_linear_524_14118" x1="28.5" y1="51.3281" x2="28.5" y2="10.3125" gradientUnits="userSpaceOnUse">
<stop stop-color="#FFBEF9"/>
<stop offset="1" stop-color="#FFF1FF"/>
</linearGradient>
<linearGradient id="paint1_linear_524_14118" x1="28.5" y1="39.4844" x2="28.5" y2="6.67188" gradientUnits="userSpaceOnUse">
<stop stop-color="#A93AFF"/>
<stop offset="1" stop-color="#D53FED"/>
</linearGradient>
<clipPath id="clip0_524_14118">
<rect width="56" height="56" fill="white" transform="translate(0.5)"/>
</clipPath>
</defs>
</svg>
