<svg width="57" height="56" viewBox="0 0 57 56" fill="none" xmlns="http://www.w3.org/2000/svg">
<g clip-path="url(#clip0_522_6128)">
<path d="M42.8186 21.2414H54.569C55.6341 21.2446 56.4968 22.1073 56.5 23.1724V27.0345C56.4968 28.0997 55.6341 28.9624 54.569 28.9655H2.43103C1.36587 28.9624 0.503181 28.0997 0.5 27.0345V23.1724C0.503181 22.1073 1.36587 21.2446 2.43103 21.2414H42.8186Z" fill="#F0C419"/>
<path d="M35.9827 28.9655H53.6034L49.4903 52.0221C49.075 54.325 47.0704 56.0002 44.7303 56H12.2696C9.92949 56.0002 7.92491 54.325 7.50959 52.0221L3.39648 28.9655H35.9827Z" fill="#F29C1F"/>
<path d="M6.29315 26.069C6.82639 26.069 7.25867 25.6367 7.25867 25.1035C7.25867 24.5702 6.82639 24.1379 6.29315 24.1379C5.75991 24.1379 5.32764 24.5702 5.32764 25.1035C5.32764 25.6367 5.75991 26.069 6.29315 26.069Z" fill="#F29C1F"/>
<path d="M12.0861 26.069C12.6194 26.069 13.0516 25.6367 13.0516 25.1035C13.0516 24.5702 12.6194 24.1379 12.0861 24.1379C11.5529 24.1379 11.1206 24.5702 11.1206 25.1035C11.1206 25.6367 11.5529 26.069 12.0861 26.069Z" fill="#F29C1F"/>
<path d="M44.9138 26.069C45.447 26.069 45.8793 25.6367 45.8793 25.1035C45.8793 24.5702 45.447 24.1379 44.9138 24.1379C44.3805 24.1379 43.9482 24.5702 43.9482 25.1035C43.9482 25.6367 44.3805 26.069 44.9138 26.069Z" fill="#F29C1F"/>
<path d="M50.7067 26.069C51.24 26.069 51.6722 25.6367 51.6722 25.1035C51.6722 24.5702 51.24 24.1379 50.7067 24.1379C50.1735 24.1379 49.7412 24.5702 49.7412 25.1035C49.7412 25.6367 50.1735 26.069 50.7067 26.069Z" fill="#F29C1F"/>
<path d="M30.4309 35.7241C30.4309 34.6576 29.5664 33.7931 28.4999 33.7931C27.4334 33.7931 26.5688 34.6576 26.5688 35.7241V49.2414C26.5688 50.3078 27.4334 51.1724 28.4999 51.1724C29.5664 51.1724 30.4309 50.3078 30.4309 49.2414V35.7241Z" fill="#D25627"/>
<path d="M42.0173 35.7241C42.0173 34.6576 41.1528 33.7931 40.0863 33.7931C39.0198 33.7931 38.1553 34.6576 38.1553 35.7241V49.2414C38.1553 50.3078 39.0198 51.1724 40.0863 51.1724C41.1528 51.1724 42.0173 50.3078 42.0173 49.2414V35.7241Z" fill="#D25627"/>
<path d="M18.8447 35.7241C18.8447 34.6576 17.9802 33.7931 16.9137 33.7931C15.8472 33.7931 14.9827 34.6576 14.9827 35.7241V49.2414C14.9827 50.3078 15.8472 51.1724 16.9137 51.1724C17.9802 51.1724 18.8447 50.3078 18.8447 49.2414V35.7241Z" fill="#D25627"/>
<path d="M28.5 30.8966C37.0319 30.8966 43.9483 23.9801 43.9483 15.4483C43.9483 6.91643 37.0319 0 28.5 0C19.9682 0 13.0518 6.91643 13.0518 15.4483C13.0518 23.9801 19.9682 30.8966 28.5 30.8966Z" fill="#4FBA6F"/>
<path d="M36.224 13.5172H30.4309V7.72413C30.4309 6.65764 29.5664 5.79309 28.4999 5.79309C27.4334 5.79309 26.5689 6.65764 26.5689 7.72413V13.5172H20.7758C19.7093 13.5172 18.8447 14.3818 18.8447 15.4483C18.8447 16.5147 19.7093 17.3793 20.7758 17.3793H26.5689V23.1724C26.5689 24.2389 27.4334 25.1034 28.4999 25.1034C29.5664 25.1034 30.4309 24.2389 30.4309 23.1724V17.3793H36.224C37.2905 17.3793 38.1551 16.5147 38.1551 15.4483C38.1551 14.3818 37.2905 13.5172 36.224 13.5172Z" fill="#ECF0F1"/>
</g>
<defs>
<clipPath id="clip0_522_6128">
<rect width="56" height="56" fill="white" transform="translate(0.5)"/>
</clipPath>
</defs>
</svg>
