<svg width="57" height="56" viewBox="0 0 57 56" fill="none" xmlns="http://www.w3.org/2000/svg">
<g clip-path="url(#clip0_530_7688)">
<path d="M28.4671 0.00170711C20.0345 -0.0965595 11.361 3.63287 5.52057 12.0659L0.5 8.29242V28.702L18.6456 21.9096L13.4609 18.005C17.1361 12.4269 22.889 9.85657 28.4671 9.88946C37.5892 9.95483 46.6562 16.8566 46.6562 27.9799C46.6562 38.7751 37.7204 46.1033 28.4671 46.1691C24.0045 46.2015 19.4437 44.4515 15.736 40.7439C12.6842 37.6925 11.7874 35.0675 9.85156 30.4738L0.762756 34.313C2.96094 39.4972 4.38281 43.3035 8.7796 47.7003C14.1283 53.049 21.2159 55.9586 28.4671 55.9586C43.8236 55.9586 56.5 43.4676 56.5 27.9803C56.5 11.0486 42.6094 0.198668 28.4671 0.00170711Z" fill="#15A4FC"/>
<path d="M39.9844 29.125V32.4062H26.8594V16H30.1406V29.125H39.9844Z" fill="#007AFF"/>
<path d="M28.5 0.00256348V9.88989C37.611 9.97192 46.6562 16.8698 46.6562 27.9799C46.6562 38.7623 37.7413 46.0858 28.5 46.1682V55.9581C43.8416 55.9402 56.5 43.4561 56.5 27.9799C56.5 11.0618 42.6307 0.215759 28.5 0.00256348Z" fill="#007AFF"/>
</g>
<defs>
<clipPath id="clip0_530_7688">
<rect width="56" height="56" fill="white" transform="translate(0.5)"/>
</clipPath>
</defs>
</svg>
