<svg width="57" height="56" viewBox="0 0 57 56" fill="none" xmlns="http://www.w3.org/2000/svg">
<path d="M46.5957 14C39.1738 14 39.8699 14 32.4479 14C30.6554 14 20.7448 14 18.9525 14C14.2382 14 9.52384 14 4.80951 14C2.39683 27.8243 2.39683 41.9619 4.80951 55.7862H46.5957C49.0084 41.9619 49.0084 27.8243 46.5957 14Z" fill="#FF9500"/>
<path d="M11.5619 55.787H4.80964C2.39907 41.9617 2.39907 27.8254 4.80964 14H11.5619C9.148 27.8254 9.148 41.9617 11.5619 55.787Z" fill="#F87F04"/>
<path d="M32.453 31.5717L26.3313 27.7124C25.9473 27.4704 25.4584 27.4704 25.0745 27.7124L20.7596 30.4326C19.975 30.9273 18.9529 30.3633 18.9529 29.4358V14H32.4531V31.5717H32.453Z" fill="#DB5C6E"/>
<path d="M19.5094 50.8142C16.2548 51.0871 13.0002 51.0871 9.74566 50.8142C8.85494 50.7395 8.15034 50.035 8.07574 49.1443C7.80288 45.8897 7.80288 42.6352 8.07574 39.3806C8.15047 38.4899 8.85494 37.7853 9.74566 37.7107C13.0002 37.4378 16.2548 37.4378 19.5094 37.7107C20.4001 37.7854 21.1047 38.4899 21.1793 39.3806C21.4522 42.6352 21.4522 45.8897 21.1793 49.1443C21.1047 50.035 20.4001 50.7395 19.5094 50.8142Z" fill="#EDEDED"/>
<path d="M18.0407 43.3175H11.214C10.6852 43.3175 10.2566 42.8889 10.2566 42.3601C10.2566 41.8313 10.6852 41.4027 11.214 41.4027H18.0407C18.5695 41.4027 18.9981 41.8313 18.9981 42.3601C18.9981 42.8887 18.5695 43.3175 18.0407 43.3175Z" fill="#DBDBDB"/>
<path d="M18.0407 47.1224H11.214C10.6852 47.1224 10.2566 46.6938 10.2566 46.165C10.2566 45.6362 10.6852 45.2076 11.214 45.2076H18.0407C18.5695 45.2076 18.9981 45.6362 18.9981 46.165C18.9981 46.6938 18.5695 47.1224 18.0407 47.1224Z" fill="#DBDBDB"/>
<path d="M40.4483 30.8966C48.9801 30.8966 55.8966 23.9801 55.8966 15.4483C55.8966 6.91643 48.9801 0 40.4483 0C31.9164 0 25 6.91643 25 15.4483C25 23.9801 31.9164 30.8966 40.4483 30.8966Z" fill="#5AC8FA"/>
<path d="M32.5 13C33.8807 13 35 14.1193 35 15.5C35 16.8807 33.8807 18 32.5 18C31.1193 18 30 16.8807 30 15.5C30 14.1193 31.1193 13 32.5 13Z" fill="white"/>
<path d="M40.5 13C41.8807 13 43 14.1193 43 15.5C43 16.8807 41.8807 18 40.5 18C39.1193 18 38 16.8807 38 15.5C38 14.1193 39.1193 13 40.5 13Z" fill="white"/>
<path d="M48.5 13C49.8807 13 51 14.1193 51 15.5C51 16.8807 49.8807 18 48.5 18C47.1193 18 46 16.8807 46 15.5C46 14.1193 47.1193 13 48.5 13Z" fill="white"/>
</svg>
