<svg width="57" height="56" viewBox="0 0 57 56" fill="none" xmlns="http://www.w3.org/2000/svg">
<g clip-path="url(#clip0_533_9223)">
<path d="M11.0131 29.6406C5.20661 29.6406 0.5 34.3622 0.5 40.186V43.2811C0.5 44.1155 1.17433 44.792 2.00654 44.792H20.0198C20.852 44.792 21.5263 44.1155 21.5263 43.2811V40.186C21.5259 34.3622 16.8192 29.6406 11.0131 29.6406Z" fill="#FF9FE4"/>
<path d="M16.7923 20.7928C16.7923 17.5914 14.2048 14.9959 11.0131 14.9959C7.82094 14.9959 5.23389 17.5914 5.23389 20.7928C5.23389 23.9946 7.82094 26.59 11.0131 26.59C14.2048 26.59 16.7923 23.9946 16.7923 20.7928Z" fill="#FF9FE4"/>
<path d="M51.7656 19.8582C51.7656 16.6568 49.1786 14.0614 45.9865 14.0614C42.7948 14.0614 40.2073 16.6568 40.2073 19.8582C40.2073 23.0596 42.7948 25.6551 45.9865 25.6551C49.1786 25.6551 51.7656 23.0596 51.7656 19.8582Z" fill="#FF9FE4"/>
<path d="M45.9863 28.9248C40.1802 28.9248 35.4736 33.646 35.4736 39.4697V42.5648C35.4736 43.3993 36.1475 44.0758 36.9802 44.0758H54.9934C55.8252 44.0758 56.4999 43.3993 56.4999 42.5648V39.4697C56.4995 33.646 51.7929 28.9248 45.9863 28.9248Z" fill="#FF9FE4"/>
<path fill-rule="evenodd" clip-rule="evenodd" d="M28.1752 8.12964C32.424 8.12964 35.8684 11.5842 35.8684 15.8462C35.8684 20.1079 32.424 23.5629 28.1752 23.5629C23.9263 23.5629 20.4819 20.1079 20.4819 15.8462C20.4819 11.5842 23.9263 8.12964 28.1752 8.12964ZM13.7136 41.3926C13.7136 33.2019 20.3338 26.5614 28.4999 26.5614C36.6659 26.5614 43.2861 33.2019 43.2861 41.3926V45.746C43.2861 46.9195 42.3374 47.8713 41.1674 47.8713H15.8323C14.6623 47.8713 13.7136 46.9195 13.7136 45.746V41.3926Z" fill="url(#paint0_linear_533_9223)"/>
</g>
<defs>
<linearGradient id="paint0_linear_533_9223" x1="28.4999" y1="8.12964" x2="28.4999" y2="47.8713" gradientUnits="userSpaceOnUse">
<stop stop-color="#E308A6"/>
<stop offset="1" stop-color="#CA0092"/>
</linearGradient>
<clipPath id="clip0_533_9223">
<rect width="56" height="56" fill="white" transform="translate(0.5)"/>
</clipPath>
</defs>
</svg>
