<svg width="57" height="56" viewBox="0 0 57 56" fill="none" xmlns="http://www.w3.org/2000/svg">
<path d="M53 10.5V51.625C53 52.325 51.95 52.675 51.25 52.15L48.625 49.7C48.1 49.35 47.225 49.35 46.7 49.7L44.075 51.8C43.2 52.5 41.8 52.5 40.925 51.8L38.3 49.7C37.775 49.175 36.9 49.175 36.375 49.7L33.75 51.8C32.875 52.5 31.475 52.5 30.425 51.8L27.8 49.7C27.275 49.175 26.4 49.175 25.875 49.7L23.25 51.8C22.375 52.5 20.975 52.5 19.925 51.8L17.3 49.7C16.775 49.35 15.9 49.35 15.375 49.7L12.75 52.15C12.05 52.85 11 52.325 11 51.625V3.5H45.475C49.5 3.5 53 6.65 53 10.5Z" fill="#7D68FF"/>
<path d="M11 3.5V17.575H5.75C4.875 17.575 4 16.7 4 15.825V10.5C4 6.825 7.15 3.675 11 3.5Z" fill="#3D00BF"/>
<path d="M45.4749 13.65H18.3499C17.4749 13.65 16.7749 12.95 16.7749 12.075C16.9499 11.2 17.6499 10.5 18.3499 10.5H45.4749C46.3499 10.5 47.0499 11.2 47.0499 12.075C47.0499 12.95 46.3499 13.65 45.4749 13.65Z" fill="white"/>
<path d="M45.4749 22.925H18.3499C17.4749 22.925 16.7749 22.225 16.7749 21.35C16.7749 20.475 17.4749 19.775 18.3499 19.775H45.4749C46.3499 19.775 47.0499 20.475 47.0499 21.35C47.0499 22.225 46.3499 22.925 45.4749 22.925Z" fill="white"/>
<path d="M45.4749 32.2H18.3499C17.4749 32.2 16.7749 31.5 16.7749 30.625C16.7749 29.75 17.4749 29.05 18.3499 29.05H45.4749C46.3499 29.05 47.0499 29.75 47.0499 30.625C47.0499 31.5 46.3499 32.2 45.4749 32.2Z" fill="white"/>
<path d="M45.4749 41.475H18.3499C17.4749 41.475 16.7749 40.775 16.7749 39.9C16.7749 39.025 17.4749 38.325 18.3499 38.325H45.4749C46.3499 38.325 47.0499 39.025 47.0499 39.9C47.0499 40.775 46.3499 41.475 45.4749 41.475Z" fill="white"/>
<path d="M15 56C22.732 56 29 49.732 29 42C29 34.268 22.732 28 15 28C7.26801 28 1 34.268 1 42C1 49.732 7.26801 56 15 56Z" fill="#5856D6"/>
<path fill-rule="evenodd" clip-rule="evenodd" d="M12.8047 35.5286C13.0651 35.7889 13.0651 36.211 12.8047 36.4714L11.2761 38H16.3333C18.9107 38 21 40.0893 21 42.6667C21 45.244 18.9107 47.3333 16.3333 47.3333H9.66667C9.29848 47.3333 9 47.0349 9 46.6667C9 46.2985 9.29848 46 9.66667 46H16.3333C18.1743 46 19.6667 44.5076 19.6667 42.6667C19.6667 40.8257 18.1743 39.3333 16.3333 39.3333H11.2761L12.8047 40.8619C13.0651 41.1223 13.0651 41.5444 12.8047 41.8047C12.5444 42.0651 12.1223 42.0651 11.8619 41.8047L9.19526 39.1381C8.93491 38.8777 8.93491 38.4556 9.19526 38.1953L11.8619 35.5286C12.1223 35.2682 12.5444 35.2682 12.8047 35.5286Z" fill="white" stroke="white" stroke-linecap="round" stroke-linejoin="round"/>
</svg>
