<svg width="64" height="64" viewBox="0 0 64 64" fill="none" xmlns="http://www.w3.org/2000/svg">
<path fill-rule="evenodd" clip-rule="evenodd" d="M32 0C49.6731 0 64 14.3269 64 32C64 49.6731 49.6731 64 32 64C14.3269 64 0 49.6731 0 32C0 14.3269 14.3269 0 32 0ZM50.7875 46.8045C51.2447 46.3449 51.5014 45.7229 51.5014 45.0746C51.5014 44.4263 51.2447 43.8044 50.7875 43.3447L44.5236 37.0822C44.0638 36.6248 43.4416 36.368 42.793 36.368C42.1444 36.368 41.5222 36.6248 41.0624 37.0822L39.3602 38.7851C38.795 39.3551 38.0608 39.7273 37.2669 39.8462C36.4731 39.9651 35.662 39.8244 34.9546 39.445C30.5251 37.0988 26.9022 33.4764 24.5555 29.0471C24.176 28.3396 24.0351 27.5284 24.1538 26.7343C24.2725 25.9402 24.6444 25.2057 25.2143 24.64L26.9196 22.9375C27.3769 22.4777 27.6335 21.8556 27.6335 21.2072C27.6335 20.5587 27.3769 19.9367 26.9196 19.4769L20.6558 13.215C20.196 12.7575 19.5737 12.5006 18.9251 12.5006C18.2764 12.5006 17.6542 12.7575 17.1944 13.215C16.9355 13.4731 16.608 13.785 16.2577 14.115C15.3819 14.9429 14.2891 15.9733 13.8474 16.621C11.5208 20.0259 12.6365 24.5811 13.9769 27.8034C15.7475 32.0505 19.0107 36.6784 23.1689 40.8336C27.3232 44.9884 31.9496 48.252 36.1991 50.0226C39.4206 51.3649 43.9741 52.4779 47.3789 50.1517C48.0262 49.7096 49.0581 48.6195 49.8844 47.7425C50.2158 47.3929 50.5279 47.0625 50.7875 46.8045Z" fill="#6CDC2D"/>
</svg>
