<svg width="64" height="64" viewBox="0 0 64 64" fill="none" xmlns="http://www.w3.org/2000/svg">
<path d="M32 64C49.6731 64 64 49.6731 64 32C64 14.3269 49.6731 0 32 0C14.3269 0 0 14.3269 0 32C0 49.6731 14.3269 64 32 64Z" fill="#0084FF"/>
<path d="M52 31.2473C52 41.4764 43.0436 49.7673 32 49.7673C30.0611 49.7685 28.131 49.508 26.2618 48.9927L19.4509 52.7273V45.6655C14.9091 42.2727 12 37.0909 12 31.2473C12 21.0182 20.9564 12.7273 32 12.7273C43.0436 12.7273 52 21.0218 52 31.2473V31.2473Z" fill="white"/>
<path d="M44.92 26.0618L33.9855 37.6618L28.8945 32.2327L18.9564 37.6655L29.8909 26.0618L35.1091 31.4909L44.92 26.0618Z" fill="#2196F3"/>
</svg>
