<svg width="24" height="24" viewBox="0 0 24 24" fill="none" xmlns="http://www.w3.org/2000/svg">
<g clip-path="url(#clip0_14_4)">
<path d="M21.1539 22.0057H2.84606C1.87031 22.0057 1.0793 21.2147 1.0793 20.239V4.9943C1.0793 4.01855 1.87031 3.22753 2.84606 3.22753H21.1539C22.1297 3.22753 22.9207 4.01855 22.9207 4.9943V20.239C22.9207 21.2147 22.1297 22.0057 21.1539 22.0057Z" fill="url(#paint0_linear_14_4)"/>
<path d="M20.7457 21.587H3.25434C2.32209 21.587 1.56633 20.8312 1.56633 19.899V5.33423C1.56633 4.40198 2.32205 3.64622 3.25434 3.64622H20.7456C21.6779 3.64622 22.4336 4.40194 22.4336 5.33423V19.899C22.4337 20.8312 21.6779 21.587 20.7457 21.587Z" fill="url(#paint1_linear_14_4)"/>
<path d="M21.7369 8.15864L17.3332 0.531328C17.04 0.02325 16.3902 -0.150844 15.8821 0.142547L1.99786 8.15864H21.7369Z" fill="url(#paint2_linear_14_4)"/>
<path d="M1.0793 14.2973H22.9207V8.51236C22.9207 7.78219 22.3288 7.1903 21.5986 7.1903H2.40136C1.67119 7.1903 1.0793 7.78219 1.0793 8.51236V14.2973Z" fill="url(#paint3_linear_14_4)"/>
<path d="M1.0793 12.1216V20.239C1.0793 21.2147 1.87031 22.0058 2.84611 22.0058H21.1539C22.1297 22.0058 22.9207 21.2148 22.9207 20.239V12.1216C22.9207 11.519 22.4321 11.0304 21.8295 11.0304H2.17055C1.56788 11.0304 1.0793 11.5189 1.0793 12.1216Z" fill="url(#paint4_linear_14_4)"/>
<path d="M19.6256 7.93486V22.0058H21.1539C22.1297 22.0058 22.9207 21.2148 22.9207 20.2391V11.23L19.6256 7.93486Z" fill="url(#paint5_linear_14_4)"/>
<path d="M18.1358 23.9867L2.80359 22.206C1.82072 22.0919 1.0793 21.2594 1.0793 20.2699V4.86258C1.0793 5.1937 1.32741 5.47223 1.65623 5.51044L18.5855 7.47666C19.5683 7.59084 20.3098 8.4233 20.3098 9.41278V22.0507C20.3098 23.2162 19.2936 24.1213 18.1358 23.9867Z" fill="url(#paint6_linear_14_4)"/>
<path d="M18.1358 20.9092L2.80359 19.1285C1.82072 19.0143 1.0793 18.1819 1.0793 17.1924V20.2699C1.0793 21.2594 1.82072 22.0919 2.80359 22.206L18.1358 23.9867C19.2936 24.1212 20.3098 23.2162 20.3098 22.0506V18.9731C20.3098 20.1387 19.2936 21.0436 18.1358 20.9092Z" fill="url(#paint7_linear_14_4)"/>
<path d="M2.45391 7.26403C2.44106 7.26403 2.42803 7.26328 2.41495 7.26187L1.71333 7.18472C1.51955 7.16339 1.37972 6.98911 1.40105 6.79537C1.42237 6.60164 1.5968 6.46195 1.79039 6.48309L2.49202 6.56025C2.6858 6.58158 2.82562 6.75586 2.8043 6.94959C2.78442 7.1303 2.63152 7.26403 2.45391 7.26403Z" fill="url(#paint8_linear_14_4)"/>
<path d="M16.871 22.824C16.8562 22.824 16.8411 22.823 16.826 22.8211L15.4624 22.6477C15.2691 22.6231 15.1322 22.4464 15.1568 22.253C15.1814 22.0597 15.3581 21.9236 15.5515 21.9474L16.9151 22.1208C17.1084 22.1454 17.2454 22.3221 17.2207 22.5155C17.198 22.6937 17.0461 22.824 16.871 22.824ZM18.2132 22.6492C18.0809 22.6492 17.9539 22.5744 17.8937 22.4466C17.8106 22.2703 17.8862 22.06 18.0626 21.977C18.4207 21.8082 18.69 21.5284 18.8015 21.2091C18.8657 21.0251 19.0671 20.9281 19.251 20.9922C19.435 21.0565 19.5322 21.2578 19.4679 21.4418C19.2918 21.9461 18.8996 22.3629 18.3634 22.6155C18.3148 22.6384 18.2637 22.6492 18.2132 22.6492ZM14.1438 22.4772C14.129 22.4772 14.1139 22.4762 14.0988 22.4743L12.7351 22.3009C12.5418 22.2764 12.4049 22.0996 12.4296 21.9062C12.4542 21.7129 12.6308 21.5768 12.8243 21.6007L14.1879 21.774C14.3812 21.7986 14.5181 21.9753 14.4935 22.1687C14.4707 22.3469 14.3188 22.4772 14.1438 22.4772ZM11.4165 22.1303C11.4017 22.1303 11.3867 22.1294 11.3715 22.1275L10.0079 21.9541C9.81459 21.9295 9.67767 21.7528 9.70233 21.5594C9.72694 21.3661 9.90366 21.2293 10.097 21.2538L11.4607 21.4272C11.654 21.4518 11.7909 21.6285 11.7662 21.8219C11.7435 22.0001 11.5915 22.1303 11.4165 22.1303ZM8.68922 21.7835C8.67441 21.7835 8.65936 21.7825 8.64422 21.7807L7.28053 21.6072C7.08717 21.5826 6.9503 21.4059 6.97495 21.2125C6.99956 21.0192 7.17633 20.883 7.36964 20.907L8.73333 21.0804C8.92669 21.105 9.06356 21.2817 9.03891 21.4751C9.01627 21.6533 8.8643 21.7835 8.68922 21.7835ZM5.96198 21.4367C5.94717 21.4367 5.93212 21.4357 5.91698 21.4338L4.5533 21.2604C4.35994 21.2358 4.22306 21.0591 4.24772 20.8657C4.27233 20.6723 4.44909 20.5362 4.64241 20.5601L6.00609 20.7336C6.19945 20.7582 6.33633 20.9348 6.31167 21.1282C6.28898 21.3065 6.13706 21.4367 5.96198 21.4367ZM19.2139 20.3129C19.0189 20.3129 18.861 20.1549 18.861 19.9599V18.5853C18.861 18.3904 19.0189 18.2324 19.2139 18.2324C19.4088 18.2324 19.5668 18.3904 19.5668 18.5853V19.9599C19.5668 20.1549 19.4089 20.3129 19.2139 20.3129ZM19.2139 17.5637C19.0189 17.5637 18.861 17.4057 18.861 17.2108V15.8362C18.861 15.6412 19.0189 15.4832 19.2139 15.4832C19.4088 15.4832 19.5668 15.6412 19.5668 15.8362V17.2108C19.5668 17.4057 19.4089 17.5637 19.2139 17.5637ZM19.2139 14.8145C19.0189 14.8145 18.861 14.6565 18.861 14.4615V13.0869C18.861 12.892 19.0189 12.734 19.2139 12.734C19.4088 12.734 19.5668 12.892 19.5668 13.0869V14.4615C19.5668 14.6565 19.4089 14.8145 19.2139 14.8145ZM19.2139 12.0652C19.0189 12.0652 18.861 11.9073 18.861 11.7123V10.3377C18.861 10.1428 19.0189 9.9848 19.2139 9.9848C19.4088 9.9848 19.5668 10.1428 19.5668 10.3377V11.7123C19.5668 11.9072 19.4089 12.0652 19.2139 12.0652ZM18.7203 9.45689C18.6331 9.45689 18.5458 9.42478 18.4776 9.36014C18.216 9.11227 17.853 8.95434 17.4552 8.91539L17.4459 8.91441C17.2521 8.89355 17.1119 8.7195 17.1328 8.52572C17.1536 8.33189 17.3276 8.19164 17.5215 8.21259L17.5275 8.21325C18.0772 8.26711 18.5882 8.49258 18.9631 8.84775C19.1047 8.98181 19.1107 9.20522 18.9766 9.34673C18.9071 9.41991 18.8138 9.45689 18.7203 9.45689ZM16.1176 8.76623C16.1048 8.76623 16.0918 8.76548 16.0787 8.76408L14.7123 8.61384C14.5186 8.59251 14.3787 8.41823 14.4 8.2245C14.4214 8.03077 14.5958 7.89131 14.7894 7.91222L16.1557 8.06245C16.3495 8.08378 16.4894 8.25806 16.468 8.4518C16.4482 8.63245 16.2952 8.76623 16.1176 8.76623ZM13.385 8.46577C13.3721 8.46577 13.3591 8.46502 13.346 8.46361L11.9796 8.31337C11.7859 8.29205 11.646 8.11777 11.6673 7.92403C11.6886 7.73025 11.8633 7.59066 12.0567 7.61175L13.4231 7.76198C13.6168 7.78331 13.7567 7.95759 13.7354 8.15133C13.7155 8.33203 13.5626 8.46577 13.385 8.46577ZM10.6522 8.16534C10.6393 8.16534 10.6263 8.16459 10.6132 8.16319L9.24684 8.01295C9.05311 7.99162 8.91323 7.81734 8.93456 7.62361C8.95584 7.42987 9.13017 7.29028 9.32391 7.31133L10.6903 7.46156C10.884 7.48289 11.0239 7.65717 11.0025 7.85091C10.9827 8.03156 10.8298 8.16534 10.6522 8.16534ZM7.91939 7.86492C7.90655 7.86492 7.89352 7.86417 7.88044 7.86277L6.51408 7.71253C6.3203 7.6912 6.18047 7.51692 6.2018 7.32319C6.22308 7.1295 6.39722 6.98995 6.59114 7.01091L7.9575 7.16114C8.15123 7.18247 8.29111 7.35675 8.26978 7.55048C8.25 7.73114 8.09705 7.86492 7.91939 7.86492ZM5.18663 7.56445C5.17378 7.56445 5.16075 7.5637 5.14767 7.5623L3.78131 7.41206C3.58758 7.39073 3.4477 7.21645 3.46903 7.02272C3.49036 6.82903 3.66455 6.68953 3.85837 6.71044L5.22473 6.86067C5.41852 6.882 5.55834 7.05628 5.53702 7.25002C5.51719 7.43067 5.36423 7.56445 5.18663 7.56445Z" fill="url(#paint9_linear_14_4)"/>
<path d="M3.23142 21.0894C3.21661 21.0894 3.20161 21.0885 3.18647 21.0865L2.4862 20.9975C2.29284 20.973 2.15592 20.7962 2.18058 20.6029C2.20514 20.4095 2.38186 20.2727 2.57522 20.2972L3.27548 20.3863C3.46884 20.4108 3.60577 20.5875 3.58111 20.7809C3.55842 20.9592 3.40645 21.0894 3.23142 21.0894Z" fill="url(#paint10_linear_14_4)"/>
<path d="M16.1985 2.62819L13.9397 3.85734C13.6455 4.01742 13.2772 3.90872 13.117 3.61448C12.957 3.32025 13.0657 2.95195 13.3599 2.79183L15.6187 1.56272C15.913 1.40264 16.2813 1.51134 16.4414 1.80558C16.6015 2.09977 16.4928 2.46811 16.1985 2.62819Z" fill="#61DB99"/>
<path d="M20.3098 17.0541L18.0682 14.8125C17.7519 14.4681 17.298 14.2521 16.7936 14.2521C15.838 14.2521 15.0634 15.0268 15.0634 15.9824C15.0634 16.4868 15.2794 16.9407 15.6238 17.2569L20.3098 21.9429V17.0541H20.3098Z" fill="url(#paint11_linear_14_4)"/>
<path d="M16.7934 17.7124C17.749 17.7124 18.5237 16.9377 18.5237 15.9821C18.5237 15.0265 17.749 14.2519 16.7934 14.2519C15.8378 14.2519 15.0632 15.0265 15.0632 15.9821C15.0632 16.9377 15.8378 17.7124 16.7934 17.7124Z" fill="url(#paint12_linear_14_4)"/>
<path d="M16.7934 17.1762C17.4529 17.1762 17.9875 16.6416 17.9875 15.9821C17.9875 15.3226 17.4529 14.788 16.7934 14.788C16.134 14.788 15.5993 15.3226 15.5993 15.9821C15.5993 16.6416 16.134 17.1762 16.7934 17.1762Z" fill="url(#paint13_linear_14_4)"/>
<path d="M16.3398 15.7756C16.4762 15.7756 16.5869 15.665 16.5869 15.5285C16.5869 15.3921 16.4762 15.2814 16.3398 15.2814C16.2033 15.2814 16.0927 15.3921 16.0927 15.5285C16.0927 15.665 16.2033 15.7756 16.3398 15.7756Z" fill="url(#paint14_linear_14_4)"/>
<path d="M17.2471 15.7756C17.3836 15.7756 17.4942 15.665 17.4942 15.5285C17.4942 15.3921 17.3836 15.2814 17.2471 15.2814C17.1106 15.2814 17 15.3921 17 15.5285C17 15.665 17.1106 15.7756 17.2471 15.7756Z" fill="url(#paint15_linear_14_4)"/>
<path d="M16.3398 16.6833C16.4762 16.6833 16.5869 16.5727 16.5869 16.4363C16.5869 16.2998 16.4762 16.1892 16.3398 16.1892C16.2033 16.1892 16.0927 16.2998 16.0927 16.4363C16.0927 16.5727 16.2033 16.6833 16.3398 16.6833Z" fill="url(#paint16_linear_14_4)"/>
<path d="M17.2471 16.6833C17.3836 16.6833 17.4942 16.5727 17.4942 16.4363C17.4942 16.2998 17.3836 16.1892 17.2471 16.1892C17.1106 16.1892 17 16.2998 17 16.4363C17 16.5727 17.1106 16.6833 17.2471 16.6833Z" fill="url(#paint17_linear_14_4)"/>
</g>
<defs>
<linearGradient id="paint0_linear_14_4" x1="12.3569" y1="2.14516" x2="12.2294" y2="5.88418" gradientUnits="userSpaceOnUse">
<stop stop-color="#FFB92D"/>
<stop offset="1" stop-color="#F59500"/>
</linearGradient>
<linearGradient id="paint1_linear_14_4" x1="12.9683" y1="4.62776" x2="12.6211" y2="7.49217" gradientUnits="userSpaceOnUse">
<stop stop-color="#FFB92D"/>
<stop offset="1" stop-color="#F59500"/>
</linearGradient>
<linearGradient id="paint2_linear_14_4" x1="11.8671" y1="4.71244" x2="11.8671" y2="6.89451" gradientUnits="userSpaceOnUse">
<stop stop-color="#A7F3CE"/>
<stop offset="1" stop-color="#61DB99"/>
</linearGradient>
<linearGradient id="paint3_linear_14_4" x1="11.9998" y1="8.48977" x2="11.9998" y2="14.6129" gradientUnits="userSpaceOnUse">
<stop stop-color="#FF4C54"/>
<stop offset="1" stop-color="#BE3F45"/>
</linearGradient>
<linearGradient id="paint4_linear_14_4" x1="11.9998" y1="13.0365" x2="11.9998" y2="22.4932" gradientUnits="userSpaceOnUse">
<stop stop-color="#FF4C54"/>
<stop offset="1" stop-color="#BE3F45"/>
</linearGradient>
<linearGradient id="paint5_linear_14_4" x1="21.6781" y1="14.9705" x2="20.0848" y2="14.9705" gradientUnits="userSpaceOnUse">
<stop stop-color="#BE3F45" stop-opacity="0"/>
<stop offset="1" stop-color="#BE3F45"/>
</linearGradient>
<linearGradient id="paint6_linear_14_4" x1="7.42781" y1="13.3348" x2="15.5335" y2="17.0738" gradientUnits="userSpaceOnUse">
<stop stop-color="#FFB92D"/>
<stop offset="1" stop-color="#F59500"/>
</linearGradient>
<linearGradient id="paint7_linear_14_4" x1="10.4361" y1="21.6599" x2="10.1011" y2="24.2207" gradientUnits="userSpaceOnUse">
<stop stop-color="#BE3F45" stop-opacity="0"/>
<stop offset="1" stop-color="#BE3F45"/>
</linearGradient>
<linearGradient id="paint8_linear_14_4" x1="2.1026" y1="6.4813" x2="2.1026" y2="22.8579" gradientUnits="userSpaceOnUse">
<stop stop-color="#FFF465"/>
<stop offset="1" stop-color="#FFE600"/>
</linearGradient>
<linearGradient id="paint9_linear_14_4" x1="11.5166" y1="6.48182" x2="11.5166" y2="22.8241" gradientUnits="userSpaceOnUse">
<stop stop-color="#FFF465"/>
<stop offset="1" stop-color="#FFE600"/>
</linearGradient>
<linearGradient id="paint10_linear_14_4" x1="2.88075" y1="6.48086" x2="2.88075" y2="22.857" gradientUnits="userSpaceOnUse">
<stop stop-color="#FFF465"/>
<stop offset="1" stop-color="#FFE600"/>
</linearGradient>
<linearGradient id="paint11_linear_14_4" x1="19.1026" y1="18.2919" x2="14.2538" y2="13.4431" gradientUnits="userSpaceOnUse">
<stop stop-color="#BE3F45" stop-opacity="0"/>
<stop offset="1" stop-color="#BE3F45"/>
</linearGradient>
<linearGradient id="paint12_linear_14_4" x1="16.7931" y1="14.8962" x2="16.7931" y2="17.3983" gradientUnits="userSpaceOnUse">
<stop stop-color="#FF4C54"/>
<stop offset="1" stop-color="#BE3F45"/>
</linearGradient>
<linearGradient id="paint13_linear_14_4" x1="16.7931" y1="16.7319" x2="16.7931" y2="15.0054" gradientUnits="userSpaceOnUse">
<stop stop-color="#FF4C54"/>
<stop offset="1" stop-color="#BE3F45"/>
</linearGradient>
<linearGradient id="paint14_linear_14_4" x1="13.9976" y1="5.18678" x2="14.4917" y2="7.36886" gradientUnits="userSpaceOnUse">
<stop stop-color="#A7F3CE"/>
<stop offset="1" stop-color="#61DB99"/>
</linearGradient>
<linearGradient id="paint15_linear_14_4" x1="14.9049" y1="5.18689" x2="15.399" y2="7.36896" gradientUnits="userSpaceOnUse">
<stop stop-color="#A7F3CE"/>
<stop offset="1" stop-color="#61DB99"/>
</linearGradient>
<linearGradient id="paint16_linear_14_4" x1="13.8021" y1="5.23103" x2="14.2962" y2="7.4131" gradientUnits="userSpaceOnUse">
<stop stop-color="#A7F3CE"/>
<stop offset="1" stop-color="#61DB99"/>
</linearGradient>
<linearGradient id="paint17_linear_14_4" x1="14.7094" y1="5.23113" x2="15.2035" y2="7.41321" gradientUnits="userSpaceOnUse">
<stop stop-color="#A7F3CE"/>
<stop offset="1" stop-color="#61DB99"/>
</linearGradient>
<clipPath id="clip0_14_4">
<rect width="24" height="24" fill="white"/>
</clipPath>
</defs>
</svg>
