<svg width="56" height="56" viewBox="0 0 56 56" fill="none" xmlns="http://www.w3.org/2000/svg">
<rect width="56" height="56" rx="8" fill="#D1D1D6"/>
<path d="M34.5944 13C37.2784 13 39.4551 15.1769 39.4551 17.8607C39.4551 20.5446 37.2783 22.7214 34.5944 22.7214C31.9097 22.7214 29.7337 20.5446 29.7337 17.8607C29.7337 15.1769 31.9097 13 34.5944 13ZM43.7083 42.5697H28.0688H13.126C11.7836 42.5697 11.1857 41.5985 11.7909 40.4002L20.1328 23.8776C20.7372 22.6794 21.8891 22.5725 22.7049 23.6385L31.093 34.6004C31.9088 35.6665 33.3346 35.7572 34.2784 34.802L36.3304 32.7241C37.2734 31.7689 38.6627 31.8871 39.4324 32.9865L44.746 40.5767C45.5141 41.6777 45.0508 42.5697 43.7083 42.5697Z" fill="white"/>
</svg>
