<svg width="250" height="207" viewBox="0 0 250 207" fill="none" xmlns="http://www.w3.org/2000/svg">
<rect width="250" height="200" fill="white"/>
<g opacity="0.1">
<g clip-path="url(#clip0_34_77)">
<path d="M220.696 140.367C220.696 138.952 221.116 137.569 221.902 136.393C222.688 135.217 223.804 134.3 225.111 133.759C226.418 133.218 227.856 133.076 229.243 133.352C230.631 133.628 231.905 134.309 232.905 135.31C233.906 136.31 234.587 137.584 234.863 138.971C235.139 140.359 234.997 141.797 234.456 143.104C233.914 144.41 232.998 145.527 231.822 146.313C230.645 147.099 229.263 147.518 227.848 147.518C225.951 147.518 224.132 146.765 222.791 145.424C221.45 144.083 220.696 142.263 220.696 140.367V140.367ZM61.3123 147.518C59.4155 147.518 57.5964 146.765 56.2552 145.424C54.914 144.083 54.1605 142.263 54.1605 140.367C54.1605 138.47 54.914 136.651 56.2552 135.31C57.5964 133.968 59.4155 133.215 61.3123 133.215H21.4663C19.5695 133.215 17.7504 132.461 16.4092 131.12C15.0679 129.779 14.3145 127.96 14.3145 126.063C14.3145 124.166 15.0679 122.347 16.4092 121.006C17.7504 119.665 19.5695 118.911 21.4663 118.911H62.334C64.2308 118.911 66.0499 118.158 67.3911 116.816C68.7324 115.475 69.4858 113.656 69.4858 111.759C69.4858 109.862 68.7324 108.043 67.3911 106.702C66.0499 105.361 64.2308 104.607 62.334 104.607H36.7917C34.8949 104.607 33.0758 103.854 31.7346 102.513C30.3933 101.171 29.6398 99.3523 29.6398 97.4555C29.6398 95.5588 30.3933 93.7397 31.7346 92.3984C33.0758 91.0572 34.8949 90.3037 36.7917 90.3037H77.6594C75.7626 90.3037 73.9435 89.5502 72.6023 88.209C71.261 86.8677 70.5075 85.0486 70.5075 83.1518C70.5075 81.2551 71.261 79.436 72.6023 78.0947C73.9435 76.7535 75.7626 76 77.6594 76H135.896C137.793 76 139.612 76.7535 140.953 78.0947C142.294 79.436 143.048 81.2551 143.048 83.1518C143.048 85.0486 142.294 86.8677 140.953 88.209C139.612 89.5502 137.793 90.3037 135.896 90.3037H201.284C203.181 90.3037 205 91.0572 206.341 92.3984C207.683 93.7397 208.436 95.5588 208.436 97.4555C208.436 99.3523 207.683 101.171 206.341 102.513C205 103.854 203.181 104.607 201.284 104.607H223.761C225.658 104.607 227.477 105.361 228.819 106.702C230.16 108.043 230.913 109.862 230.913 111.759C230.913 113.656 230.16 115.475 228.819 116.816C227.477 118.158 225.658 118.911 223.761 118.911H204.349C202.452 118.911 200.633 119.665 199.292 121.006C197.951 122.347 197.197 124.166 197.197 126.063C197.197 127.96 197.951 129.779 199.292 131.12C200.633 132.461 202.452 133.215 204.349 133.215H210.479C212.376 133.215 214.195 133.968 215.537 135.31C216.878 136.651 217.631 138.47 217.631 140.367C217.631 142.263 216.878 144.083 215.537 145.424C214.195 146.765 212.376 147.518 210.479 147.518H61.3123Z" fill="#B8B8B8"/>
</g>
</g>
<g opacity="0.2" filter="url(#filter0_d_34_77)">
<path d="M158.246 44.0455C155.496 43.7915 153.061 45.8146 152.807 48.5643C152.553 51.314 154.576 53.749 157.326 54.0031C160.075 54.2572 162.51 52.2341 162.764 49.4844C163.019 46.7347 160.995 44.2996 158.246 44.0455Z" fill="url(#paint0_linear_34_77)"/>
</g>
<g opacity="0.1" filter="url(#filter1_d_34_77)">
<path d="M168.618 166.828C163.668 166.371 159.285 170.013 158.828 174.962C158.371 179.912 162.012 184.295 166.962 184.752C171.911 185.209 176.294 181.568 176.752 176.618C177.209 171.669 173.567 167.286 168.618 166.828Z" fill="url(#paint1_linear_34_77)"/>
</g>
<g opacity="0.6" filter="url(#filter2_d_34_77)">
<path d="M62.8963 54.3158C57.9468 53.8585 53.5637 57.5001 53.1064 62.4496C52.649 67.399 56.2906 71.7821 61.2401 72.2395C66.1896 72.6968 70.5727 69.0552 71.03 64.1058C71.4874 59.1563 67.8458 54.7732 62.8963 54.3158Z" fill="url(#paint2_linear_34_77)"/>
</g>
<g clip-path="url(#clip1_34_77)">
<path d="M183.987 79.5397L132.13 109.259C127.714 111.79 122.287 111.79 117.87 109.259L66.0132 79.5397C64.3664 82.3642 63.4632 85.6225 63.4632 88.996V137.694C63.4632 141.068 64.3664 144.326 66.0132 147.151C67.6512 149.975 70.0154 152.357 72.937 154.039L115.632 178.503C118.537 180.168 121.768 181 125 181C128.241 181 131.472 180.168 134.377 178.503L177.063 154.039C179.994 152.357 182.349 149.975 183.987 147.151C185.633 144.326 186.537 141.068 186.537 137.694V88.996C186.537 85.6228 185.634 82.3642 183.987 79.5397V79.5397Z" fill="url(#paint3_linear_34_77)"/>
<path d="M117.87 109.259L66.0132 79.54C64.3664 82.3645 63.4632 85.6228 63.4632 88.9963V137.695C63.4632 141.068 64.3664 144.326 66.0132 147.151C67.6512 149.975 70.0154 152.357 72.937 154.04L115.632 178.504C118.537 180.168 121.768 181 125 181V111.157C122.539 111.157 120.078 110.524 117.87 109.259V109.259Z" fill="url(#paint4_linear_34_77)"/>
<path d="M184.125 79.5468L125 113.812L65.875 79.5468C68.9326 77.9767 115.61 60.7519 115.61 60.7519C121.423 58.041 128.576 58.041 134.398 60.7519C134.398 60.7519 181.203 78.0479 184.125 79.5468Z" fill="url(#paint5_linear_34_77)"/>
<path d="M186.539 88.9976V137.694C186.539 141.068 185.632 144.328 183.988 147.151C182.348 149.975 179.992 152.356 177.064 154.04L134.378 178.503C131.471 180.168 128.241 180.999 125 180.999C124.756 180.999 124.508 180.996 124.263 180.982L63.4614 120.18V88.9976C63.4614 85.6237 64.368 82.3648 66.0118 79.5409L125 113.345L183.988 79.5409C185.632 82.3648 186.539 85.6237 186.539 88.9976V88.9976Z" fill="url(#paint6_linear_34_77)"/>
<path d="M125 113.346L101.552 136.794C99.596 138.75 96.5711 139.154 94.1706 137.778L42.9793 108.444C41.1001 107.367 40.7575 104.799 42.2889 103.267L66.0118 79.5408L125 113.346Z" fill="url(#paint7_linear_34_77)"/>
<path d="M125 113.346L148.448 136.794C150.404 138.75 153.429 139.153 155.829 137.778L207.021 108.444C208.9 107.367 209.243 104.799 207.711 103.267L183.989 79.5409L125 113.346Z" fill="url(#paint8_linear_34_77)"/>
<path opacity="0.1" d="M123.829 97.682C137.186 97.682 148.014 86.8541 148.014 73.4973C148.014 60.1404 137.186 49.3125 123.829 49.3125C110.472 49.3125 99.6441 60.1404 99.6441 73.4973C99.6441 86.8541 110.472 97.682 123.829 97.682Z" fill="black"/>
<path d="M123.829 91.0217C137.186 91.0217 148.014 80.1938 148.014 66.8369C148.014 53.48 137.186 42.6521 123.829 42.6521C110.472 42.6521 99.6441 53.48 99.6441 66.8369C99.6441 80.1938 110.472 91.0217 123.829 91.0217Z" fill="url(#paint9_linear_34_77)"/>
<path d="M116.061 65.1332C115.522 64.5042 114.575 64.4314 113.946 64.9705C113.317 65.5096 113.244 66.4566 113.783 67.0856L116.061 65.1332ZM122.984 75.5156L121.845 76.4918C122.13 76.8235 122.545 77.0148 122.982 77.0156C123.418 77.0164 123.834 76.8267 124.12 76.4961L122.984 75.5156ZM136.885 61.7148C137.427 61.0878 137.357 60.1406 136.73 59.5991C136.103 59.0577 135.156 59.127 134.615 59.7539L136.885 61.7148ZM113.783 67.0856L121.845 76.4918L124.123 74.5394L116.061 65.1332L113.783 67.0856ZM124.12 76.4961L136.885 61.7148L134.615 59.7539L121.849 74.5352L124.12 76.4961Z" fill="white"/>
</g>
<defs>
<filter id="filter0_d_34_77" x="134.785" y="30.024" width="46.0007" height="46.0007" filterUnits="userSpaceOnUse" color-interpolation-filters="sRGB">
<feFlood flood-opacity="0" result="BackgroundImageFix"/>
<feColorMatrix in="SourceAlpha" type="matrix" values="0 0 0 0 0 0 0 0 0 0 0 0 0 0 0 0 0 0 127 0" result="hardAlpha"/>
<feOffset dy="4"/>
<feGaussianBlur stdDeviation="9"/>
<feColorMatrix type="matrix" values="0 0 0 0 0.154758 0 0 0 0 0.408333 0 0 0 0 0.132708 0 0 0 0.25 0"/>
<feBlend mode="normal" in2="BackgroundImageFix" result="effect1_dropShadow_34_77"/>
<feBlend mode="normal" in="SourceGraphic" in2="effect1_dropShadow_34_77" result="shape"/>
</filter>
<filter id="filter1_d_34_77" x="140.789" y="152.79" width="54.0012" height="54.0012" filterUnits="userSpaceOnUse" color-interpolation-filters="sRGB">
<feFlood flood-opacity="0" result="BackgroundImageFix"/>
<feColorMatrix in="SourceAlpha" type="matrix" values="0 0 0 0 0 0 0 0 0 0 0 0 0 0 0 0 0 0 127 0" result="hardAlpha"/>
<feOffset dy="4"/>
<feGaussianBlur stdDeviation="9"/>
<feColorMatrix type="matrix" values="0 0 0 0 0.154758 0 0 0 0 0.408333 0 0 0 0 0.132708 0 0 0 0.25 0"/>
<feBlend mode="normal" in2="BackgroundImageFix" result="effect1_dropShadow_34_77"/>
<feBlend mode="normal" in="SourceGraphic" in2="effect1_dropShadow_34_77" result="shape"/>
</filter>
<filter id="filter2_d_34_77" x="35.0676" y="40.2771" width="54.0012" height="54.0012" filterUnits="userSpaceOnUse" color-interpolation-filters="sRGB">
<feFlood flood-opacity="0" result="BackgroundImageFix"/>
<feColorMatrix in="SourceAlpha" type="matrix" values="0 0 0 0 0 0 0 0 0 0 0 0 0 0 0 0 0 0 127 0" result="hardAlpha"/>
<feOffset dy="4"/>
<feGaussianBlur stdDeviation="9"/>
<feColorMatrix type="matrix" values="0 0 0 0 0.154758 0 0 0 0 0.408333 0 0 0 0 0.132708 0 0 0 0.25 0"/>
<feBlend mode="normal" in2="BackgroundImageFix" result="effect1_dropShadow_34_77"/>
<feBlend mode="normal" in="SourceGraphic" in2="effect1_dropShadow_34_77" result="shape"/>
</filter>
<linearGradient id="paint0_linear_34_77" x1="159.403" y1="54.1607" x2="156.184" y2="43.9438" gradientUnits="userSpaceOnUse">
<stop stop-color="#05D68B"/>
<stop offset="0.366" stop-color="#20CF04"/>
<stop offset="0.899" stop-color="#02BC2B"/>
<stop offset="1" stop-color="#25B701"/>
</linearGradient>
<linearGradient id="paint1_linear_34_77" x1="170.702" y1="185.036" x2="164.906" y2="166.645" gradientUnits="userSpaceOnUse">
<stop stop-color="#05D68B"/>
<stop offset="0.366" stop-color="#20CF04"/>
<stop offset="0.899" stop-color="#02BC2B"/>
<stop offset="1" stop-color="#25B701"/>
</linearGradient>
<linearGradient id="paint2_linear_34_77" x1="64.9802" y1="72.5232" x2="59.1843" y2="54.1328" gradientUnits="userSpaceOnUse">
<stop stop-color="#05D68B"/>
<stop offset="0.366" stop-color="#20CF04"/>
<stop offset="0.899" stop-color="#02BC2B"/>
<stop offset="1" stop-color="#25B701"/>
</linearGradient>
<linearGradient id="paint3_linear_34_77" x1="139.608" y1="128.399" x2="182.877" y2="171.668" gradientUnits="userSpaceOnUse">
<stop stop-color="#FFCE47"/>
<stop offset="1" stop-color="#FF9356"/>
</linearGradient>
<linearGradient id="paint4_linear_34_77" x1="79.9904" y1="114.084" x2="130.358" y2="164.452" gradientUnits="userSpaceOnUse">
<stop stop-color="#FFCE47"/>
<stop offset="1" stop-color="#FF9356"/>
</linearGradient>
<linearGradient id="paint5_linear_34_77" x1="125" y1="72.1562" x2="125" y2="101.719" gradientUnits="userSpaceOnUse">
<stop stop-color="#FFC200"/>
<stop offset="1" stop-color="#FF9100"/>
</linearGradient>
<linearGradient id="paint6_linear_34_77" x1="148.181" y1="158.342" x2="123.902" y2="100.072" gradientUnits="userSpaceOnUse">
<stop stop-color="#FF9356" stop-opacity="0"/>
<stop offset="1" stop-color="#FF755C"/>
</linearGradient>
<linearGradient id="paint7_linear_34_77" x1="69.2386" y1="96.2265" x2="111.697" y2="138.685" gradientUnits="userSpaceOnUse">
<stop stop-color="#FFCE47"/>
<stop offset="1" stop-color="#FF9356"/>
</linearGradient>
<linearGradient id="paint8_linear_34_77" x1="151.321" y1="91.1189" x2="181.537" y2="125.651" gradientUnits="userSpaceOnUse">
<stop stop-color="#FFCE47"/>
<stop offset="1" stop-color="#FF9356"/>
</linearGradient>
<linearGradient id="paint9_linear_34_77" x1="113.751" y1="42.8178" x2="133.807" y2="90.5937" gradientUnits="userSpaceOnUse">
<stop stop-color="#05D68B"/>
<stop offset="0.366" stop-color="#20CF04"/>
<stop offset="0.899" stop-color="#02BC2B"/>
<stop offset="1" stop-color="#25B701"/>
</linearGradient>
<clipPath id="clip0_34_77">
<rect width="220.686" height="71.5185" fill="white" transform="translate(14.3145 76)"/>
</clipPath>
<clipPath id="clip1_34_77">
<rect width="172" height="172" fill="white" transform="translate(39 9)"/>
</clipPath>
</defs>
</svg>
