<svg width="235" height="198" viewBox="0 0 235 198" fill="none" xmlns="http://www.w3.org/2000/svg">
<g opacity="0.1">
<g clip-path="url(#clip0_34_102)">
<path d="M220.696 126.367C220.696 124.952 221.116 123.569 221.902 122.393C222.687 121.217 223.804 120.301 225.111 119.759C226.418 119.218 227.856 119.076 229.243 119.352C230.631 119.628 231.905 120.309 232.905 121.31C233.905 122.31 234.587 123.584 234.863 124.971C235.139 126.359 234.997 127.797 234.456 129.104C233.914 130.41 232.998 131.527 231.822 132.313C230.645 133.099 229.263 133.519 227.848 133.519C225.951 133.519 224.132 132.765 222.791 131.424C221.45 130.083 220.696 128.263 220.696 126.367ZM61.3123 133.519C59.4155 133.519 57.5964 132.765 56.2552 131.424C54.9139 130.083 54.1604 128.263 54.1604 126.367C54.1604 124.47 54.9139 122.651 56.2552 121.31C57.5964 119.968 59.4155 119.215 61.3123 119.215H21.4663C19.5695 119.215 17.7504 118.461 16.4092 117.12C15.0679 115.779 14.3144 113.96 14.3144 112.063C14.3144 110.166 15.0679 108.347 16.4092 107.006C17.7504 105.665 19.5695 104.911 21.4663 104.911H62.334C64.2308 104.911 66.0499 104.158 67.3911 102.816C68.7323 101.475 69.4858 99.6561 69.4858 97.7593C69.4858 95.8625 68.7323 94.0434 67.3911 92.7022C66.0499 91.3609 64.2308 90.6074 62.334 90.6074H36.7917C34.8949 90.6074 33.0758 89.8539 31.7345 88.5127C30.3933 87.1715 29.6398 85.3524 29.6398 83.4556C29.6398 81.5588 30.3933 79.7397 31.7345 78.3985C33.0758 77.0572 34.8949 76.3037 36.7917 76.3037H77.6594C75.7626 76.3037 73.9435 75.5502 72.6022 74.209C71.261 72.8678 70.5075 71.0487 70.5075 69.1519C70.5075 67.2551 71.261 65.436 72.6022 64.0948C73.9435 62.7535 75.7626 62 77.6594 62H135.896C137.793 62 139.612 62.7535 140.953 64.0948C142.294 65.436 143.048 67.2551 143.048 69.1519C143.048 71.0487 142.294 72.8678 140.953 74.209C139.612 75.5502 137.793 76.3037 135.896 76.3037H201.284C203.181 76.3037 205 77.0572 206.341 78.3985C207.683 79.7397 208.436 81.5588 208.436 83.4556C208.436 85.3524 207.683 87.1715 206.341 88.5127C205 89.8539 203.181 90.6074 201.284 90.6074H223.761C225.658 90.6074 227.477 91.3609 228.819 92.7022C230.16 94.0434 230.913 95.8625 230.913 97.7593C230.913 99.6561 230.16 101.475 228.819 102.816C227.477 104.158 225.658 104.911 223.761 104.911H204.349C202.452 104.911 200.633 105.665 199.292 107.006C197.951 108.347 197.197 110.166 197.197 112.063C197.197 113.96 197.951 115.779 199.292 117.12C200.633 118.461 202.452 119.215 204.349 119.215H210.479C212.376 119.215 214.195 119.968 215.537 121.31C216.878 122.651 217.631 124.47 217.631 126.367C217.631 128.263 216.878 130.083 215.537 131.424C214.195 132.765 212.376 133.519 210.479 133.519H61.3123Z" fill="#B8B8B8"/>
<rect x="91" y="104" width="68" height="12" fill="white"/>
</g>
</g>
<g opacity="0.2" filter="url(#filter0_d_34_102)">
<path d="M79.7392 16.8194C78.0265 18.9855 78.3941 22.1299 80.5603 23.8426C82.7264 25.5553 85.8708 25.1877 87.5835 23.0216C89.2962 20.8555 88.9286 17.711 86.7625 15.9983C84.5963 14.2857 81.4519 14.6532 79.7392 16.8194Z" fill="url(#paint0_linear_34_102)"/>
</g>
<g opacity="0.6" filter="url(#filter1_d_34_102)">
<path d="M33.5273 122.706C30.4445 126.605 31.1061 132.265 35.0052 135.348C38.9042 138.431 44.5642 137.769 47.647 133.87C50.7299 129.971 50.0682 124.311 46.1691 121.228C42.2701 118.145 36.6102 118.807 33.5273 122.706Z" fill="url(#paint1_linear_34_102)"/>
</g>
<g opacity="0.1" filter="url(#filter2_d_34_102)">
<path d="M185.582 161.06C182.499 164.959 183.161 170.619 187.06 173.702C190.959 176.785 196.619 176.123 199.702 172.224C202.785 168.325 202.123 162.665 198.224 159.582C194.325 156.499 188.665 157.161 185.582 161.06Z" fill="url(#paint2_linear_34_102)"/>
</g>
<path d="M92.1495 53.8222L62.5114 54.1484C59.8551 54.195 57.8513 56.525 58.1775 59.1813L66.2394 117.712C66.5657 119.902 68.4297 121.533 70.6665 121.533L162.19 120.461C164.427 120.415 166.291 118.737 166.524 116.547L172.116 65.985C172.303 64.2142 170.951 62.6763 169.134 62.7229L99.4192 63.4686L96.9027 56.5716C95.9707 54.8474 94.1067 53.7756 92.1495 53.8222Z" fill="#FFCB00"/>
<path d="M92.195 55.2199L62.5103 55.5462C59.854 55.5928 57.8502 57.9228 58.1764 60.579L64.6073 119.11L168.154 117.898L172.115 67.3361C172.302 65.5653 170.95 64.0275 169.133 64.0741L99.4181 64.8663L96.9016 57.9694C95.9696 56.2452 94.1522 55.1733 92.195 55.2199Z" fill="#FFBA00"/>
<path d="M59.3879 71.5303L64.6072 119.11L168.201 117.898L171.929 70.2254L59.3879 71.5303Z" fill="#E79A15"/>
<path d="M166.617 147.257L66.7047 148.422C64.2815 148.468 62.231 146.651 61.8582 144.274L53.0507 80.3846C52.6313 77.4954 54.8681 74.9323 57.7574 74.9323L173.793 73.5809C176.682 73.5343 178.966 76.0508 178.64 78.94L171.323 143.016C171.044 145.393 169.04 147.21 166.617 147.257Z" fill="#FFFF5F"/>
<path d="M166.617 148.655L66.7047 149.82C64.2815 149.866 62.231 148.049 61.8582 145.672L53.0507 81.7828C52.6313 78.8935 54.8681 76.3305 57.7574 76.3305L173.793 74.979C176.682 74.9324 178.966 77.4489 178.64 80.3381L171.37 144.414C171.09 146.791 169.04 148.655 166.617 148.655Z" fill="url(#paint3_linear_34_102)"/>
<path opacity="0.34" d="M123.135 105.043C138.689 100.027 147.231 83.3528 142.216 67.7992C137.2 52.2457 120.526 43.703 104.972 48.7187C89.4184 53.7343 80.8758 70.4089 85.8914 85.9625C90.907 101.516 107.582 110.059 123.135 105.043Z" fill="#FFFAD2"/>
<path d="M154.841 108.137L142.488 96.9935L137.713 102.287L150.065 113.431L154.841 108.137Z" fill="#B51A21"/>
<path d="M151.275 104.922L146.05 100.209L141.274 105.503L146.499 110.216L151.275 104.922Z" fill="#D92C34"/>
<path d="M147.51 118.97C146.018 117.618 145.879 115.288 147.23 113.797L155.478 104.663C156.83 103.172 159.16 103.032 160.651 104.384L190.755 131.785L177.427 146.185L147.51 118.97Z" fill="#D92C34"/>
<path d="M182.646 150.891L177.427 146.185L190.755 131.785L195.787 136.305C197.279 137.657 197.418 139.987 196.067 141.478L187.819 150.612C186.421 152.15 184.137 152.243 182.646 150.891Z" fill="#B51A21"/>
<path d="M155.432 104.71L151.75 108.811L184.511 138.542L190.709 131.832L160.604 104.43C159.113 103.079 156.783 103.172 155.432 104.71Z" fill="#FF4C54"/>
<path d="M192.34 145.579L196.021 141.478C197.373 139.987 197.28 137.657 195.742 136.305L190.709 131.785L184.511 138.496L192.34 145.579Z" fill="#D92C34"/>
<path d="M77.19 78.7533C78.2152 99.1178 95.5973 114.776 115.915 113.704C136.28 112.679 151.938 95.2965 150.866 74.9786C149.841 54.6141 132.458 38.9562 112.141 40.028C91.776 41.0533 76.1182 58.3887 77.19 78.7533ZM143.596 75.3514C144.435 91.6617 131.899 105.595 115.589 106.434C99.2322 107.273 85.3451 94.6907 84.4597 78.3804C83.6209 62.0702 96.1565 48.1366 112.467 47.2978C128.824 46.4589 142.757 59.0411 143.596 75.3514Z" fill="#FF4C54"/>
<path d="M90.9836 75.305C90.3312 65.9848 101.329 50.6066 117.779 52.7502" stroke="#C4FFFF" stroke-width="12.352" stroke-miterlimit="10" stroke-linecap="round"/>
<path opacity="0.12" d="M130.035 51.958C137.398 74.1866 125.142 95.5763 106.688 105.502C109.53 106.201 112.466 106.528 115.542 106.388C129.755 105.642 141.126 94.9705 143.269 81.4563C143.595 79.4525 143.689 77.4021 143.595 75.305C143.083 65.4723 137.77 56.9443 130.035 51.958Z" fill="#00A3FF"/>
<path d="M143.596 75.3515C143.689 77.4486 143.596 79.499 143.27 81.5028C141.126 95.0637 129.802 105.689 115.542 106.434C112.467 106.574 109.484 106.294 106.688 105.549C103.566 107.226 100.304 108.578 96.902 109.556C102.541 112.539 109.065 114.077 115.915 113.704C136.28 112.679 151.937 95.2967 150.866 74.9787C150.073 59.1811 139.402 46.2261 125.142 41.7058C127.239 45.1543 128.87 48.5561 129.988 52.0046C137.771 56.9443 143.083 65.4722 143.596 75.3515Z" fill="#D92C34"/>
<path d="M81.99 78.4737C82.922 96.1819 97.9741 109.789 115.682 108.857C133.391 107.925 146.998 92.8733 146.066 75.165C145.134 57.4567 130.082 43.8493 112.374 44.7813C94.712 45.7133 81.1046 60.812 81.99 78.4737ZM143.596 75.3048C144.435 91.6151 131.899 105.549 115.589 106.388C99.2789 107.226 85.3453 94.6907 84.5065 78.3805C83.6677 62.0702 96.2032 48.1366 112.514 47.2978C128.824 46.459 142.757 58.9945 143.596 75.3048Z" fill="#B51A21"/>
<path d="M141.267 62.1097C153.091 62.1097 162.676 52.5244 162.676 40.7003C162.676 28.8762 153.091 19.2909 141.267 19.2909C129.443 19.2909 119.857 28.8762 119.857 40.7003C119.857 52.5244 129.443 62.1097 141.267 62.1097Z" fill="url(#paint4_linear_34_102)"/>
<path d="M141.224 41.3902C140.68 41.3902 140.384 41.0862 140.336 40.4782L139.64 31.6462C139.608 31.1502 139.736 30.7342 140.024 30.3982C140.328 30.0622 140.72 29.8942 141.2 29.8942C141.68 29.8942 142.072 30.0622 142.376 30.3982C142.68 30.7342 142.808 31.1502 142.76 31.6462L142.088 40.4782C142.04 41.0862 141.752 41.3902 141.224 41.3902ZM141.056 46.6942C140.592 46.6942 140.232 46.5742 139.976 46.3342C139.736 46.0782 139.616 45.7182 139.616 45.2542V44.8462C139.616 44.3822 139.736 44.0302 139.976 43.7902C140.232 43.5342 140.592 43.4062 141.056 43.4062H141.368C141.832 43.4062 142.184 43.5342 142.424 43.7902C142.68 44.0302 142.808 44.3822 142.808 44.8462V45.2542C142.808 45.7182 142.68 46.0782 142.424 46.3342C142.184 46.5742 141.832 46.6942 141.368 46.6942H141.056Z" fill="white"/>
<defs>
<filter id="filter0_d_34_102" x="60.6612" y="0.92028" width="46.0004" height="46.0004" filterUnits="userSpaceOnUse" color-interpolation-filters="sRGB">
<feFlood flood-opacity="0" result="BackgroundImageFix"/>
<feColorMatrix in="SourceAlpha" type="matrix" values="0 0 0 0 0 0 0 0 0 0 0 0 0 0 0 0 0 0 127 0" result="hardAlpha"/>
<feOffset dy="4"/>
<feGaussianBlur stdDeviation="9"/>
<feColorMatrix type="matrix" values="0 0 0 0 0.154758 0 0 0 0 0.408333 0 0 0 0 0.132708 0 0 0 0.25 0"/>
<feBlend mode="normal" in2="BackgroundImageFix" result="effect1_dropShadow_34_102"/>
<feBlend mode="normal" in="SourceGraphic" in2="effect1_dropShadow_34_102" result="shape"/>
</filter>
<filter id="filter1_d_34_102" x="13.5868" y="105.288" width="54.0007" height="54.0007" filterUnits="userSpaceOnUse" color-interpolation-filters="sRGB">
<feFlood flood-opacity="0" result="BackgroundImageFix"/>
<feColorMatrix in="SourceAlpha" type="matrix" values="0 0 0 0 0 0 0 0 0 0 0 0 0 0 0 0 0 0 127 0" result="hardAlpha"/>
<feOffset dy="4"/>
<feGaussianBlur stdDeviation="9"/>
<feColorMatrix type="matrix" values="0 0 0 0 0.154758 0 0 0 0 0.408333 0 0 0 0 0.132708 0 0 0 0.25 0"/>
<feBlend mode="normal" in2="BackgroundImageFix" result="effect1_dropShadow_34_102"/>
<feBlend mode="normal" in="SourceGraphic" in2="effect1_dropShadow_34_102" result="shape"/>
</filter>
<filter id="filter2_d_34_102" x="165.641" y="143.642" width="54.0007" height="54.0007" filterUnits="userSpaceOnUse" color-interpolation-filters="sRGB">
<feFlood flood-opacity="0" result="BackgroundImageFix"/>
<feColorMatrix in="SourceAlpha" type="matrix" values="0 0 0 0 0 0 0 0 0 0 0 0 0 0 0 0 0 0 127 0" result="hardAlpha"/>
<feOffset dy="4"/>
<feGaussianBlur stdDeviation="9"/>
<feColorMatrix type="matrix" values="0 0 0 0 0.154758 0 0 0 0 0.408333 0 0 0 0 0.132708 0 0 0 0.25 0"/>
<feBlend mode="normal" in2="BackgroundImageFix" result="effect1_dropShadow_34_102"/>
<feBlend mode="normal" in="SourceGraphic" in2="effect1_dropShadow_34_102" result="shape"/>
</filter>
<linearGradient id="paint0_linear_34_102" x1="88.8489" y1="21.366" x2="78.5292" y2="18.4924" gradientUnits="userSpaceOnUse">
<stop stop-color="#05D68B"/>
<stop offset="0.366" stop-color="#20CF04"/>
<stop offset="0.899" stop-color="#02BC2B"/>
<stop offset="1" stop-color="#25B701"/>
</linearGradient>
<linearGradient id="paint1_linear_34_102" x1="49.9247" y1="130.89" x2="31.3493" y2="125.718" gradientUnits="userSpaceOnUse">
<stop stop-color="#05D68B"/>
<stop offset="0.366" stop-color="#20CF04"/>
<stop offset="0.899" stop-color="#02BC2B"/>
<stop offset="1" stop-color="#25B701"/>
</linearGradient>
<linearGradient id="paint2_linear_34_102" x1="201.979" y1="169.244" x2="183.404" y2="164.071" gradientUnits="userSpaceOnUse">
<stop stop-color="#05D68B"/>
<stop offset="0.366" stop-color="#20CF04"/>
<stop offset="0.899" stop-color="#02BC2B"/>
<stop offset="1" stop-color="#25B701"/>
</linearGradient>
<linearGradient id="paint3_linear_34_102" x1="64.8367" y1="74.879" x2="162.967" y2="167.904" gradientUnits="userSpaceOnUse">
<stop stop-color="#FFC200"/>
<stop offset="1" stop-color="#FFAA01"/>
</linearGradient>
<linearGradient id="paint4_linear_34_102" x1="132.345" y1="19.4375" x2="150.1" y2="61.7309" gradientUnits="userSpaceOnUse">
<stop stop-color="#05D68B"/>
<stop offset="0.366" stop-color="#20CF04"/>
<stop offset="0.899" stop-color="#02BC2B"/>
<stop offset="1" stop-color="#25B701"/>
</linearGradient>
<clipPath id="clip0_34_102">
<rect width="220.686" height="71.5185" fill="white" transform="translate(14.3144 62)"/>
</clipPath>
</defs>
</svg>
